<svg xmlns="http://www.w3.org/2000/svg" viewBox="0 0 512 512" style="height: 512px; width: 512px;"><defs><filter id="shadow-1" height="300%" width="300%" x="-100%" y="-100%"><feFlood flood-color="rgba(74, 74, 74, 1)" result="flood"></feFlood><feComposite in="flood" in2="SourceGraphic" operator="atop" result="composite"></feComposite><feGaussianBlur in="composite" stdDeviation="15" result="blur"></feGaussianBlur><feOffset dx="0" dy="0" result="offset"></feOffset><feComposite in="SourceGraphic" in2="offset" operator="over"></feComposite></filter><linearGradient x1="0" x2="0" y1="0" y2="1" id="delapouite-briefcase-gradient-0"><stop offset="0%" stop-color="#94873a" stop-opacity="1"></stop><stop offset="100%" stop-color="#983434" stop-opacity="1"></stop></linearGradient></defs><rect fill="url(#delapouite-briefcase-gradient-0)" height="512" width="512" rx="21" ry="21"></rect><g class="" transform="translate(0,0)" style=""><path d="M224.05 95.703c-7.08-.04-11.694 4.704-14.484 8.793-2.79 4.09-4.604 8.582-6.086 12.932-1.16 3.41-2.072 6.75-2.76 9.572h18.63c.357-1.242.74-2.505 1.17-3.77 1.185-3.48 2.706-6.816 3.916-8.59.498-.73.652-.846.712-.93l61.676.337c.063.084.25.225.764.97 1.208 1.755 2.72 5.04 3.904 8.467.407 1.18.768 2.356 1.11 3.516h18.656c-.69-2.773-1.597-6.045-2.75-9.387-1.484-4.3-3.304-8.75-6.096-12.804-2.792-4.055-7.357-8.72-14.363-8.757l-64-.35zM96 145c-5 0-11.05 2.777-15.637 7.363C75.777 156.95 73 163 73 168v21.275L132.816 279h12.758v-16h50v16H311v-16h50v16h18.184L439 189.275V168c0-5-2.777-11.05-7.363-15.637C427.05 147.777 421 145 416 145H96zm-23 76.725V376c0 5 2.777 11.05 7.363 15.637C84.95 396.223 91 399 96 399h320c5 0 11.05-2.777 15.637-7.363C436.223 387.05 439 381 439 376V221.725L388.816 297H361v41.188h-50V297H195.574v41.188h-50V297h-22.39L73 221.725zM163.574 281v39.188h14V281h-14zM329 281v39.188h14V281h-14z" fill="#fffe00" fill-opacity="1" stroke="#364624" stroke-opacity="1" stroke-width="3" transform="translate(25.6, 25.6) scale(0.9, 0.9) rotate(0, 256, 256) skewX(0) skewY(0)" filter="url(#shadow-1)"></path></g></svg>